<svg width="21" height="25" viewBox="0 0 21 25" fill="none" xmlns="http://www.w3.org/2000/svg">
<g clip-path="url(#clip0_304_187)">
<path d="M19.3868 13.7157V14.5385C19.3868 15.1134 19.0457 15.6069 18.5574 15.8375C18.5222 17.0548 17.5269 18.0354 16.3013 18.0354H15.4785C14.6846 18.0354 14.0386 17.3893 14.0386 16.5955V11.6587C14.0386 10.8648 14.6846 10.2188 15.4785 10.2188H16.3013C16.3717 10.2188 16.4382 10.2332 16.507 10.2396V9.19026C16.507 5.9007 13.8312 3.22494 10.5417 3.22494C7.2521 3.22494 4.57634 5.9007 4.57634 9.19026V10.2396C4.64513 10.2332 4.71161 10.2188 4.78204 10.2188H5.60485C6.39869 10.2188 7.04475 10.8648 7.04475 11.6587V16.5955C7.04475 17.3893 6.39869 18.0354 5.60485 18.0354H4.78204C3.5564 18.0354 2.56113 17.0548 2.52592 15.8375C2.03758 15.6069 1.69653 15.1134 1.69653 14.5385V13.7157C1.69653 13.1408 2.03758 12.6473 2.52592 12.4166C2.54534 11.7453 2.85965 11.1527 3.34214 10.7506V9.19026C3.34214 5.22007 6.57148 1.99074 10.5417 1.99074C14.5119 1.99074 17.7412 5.22007 17.7412 9.19026V10.7506C18.2237 11.1528 18.538 11.7453 18.5574 12.4166C19.0457 12.6473 19.3868 13.1408 19.3868 13.7157Z" fill="white"/>
</g>
<defs>
<clipPath id="clip0_304_187">
<rect width="19.7473" height="24.6841" fill="white" transform="translate(0.667969 0.139435)"/>
</clipPath>
</defs>
</svg>
